# xmcd
#
# Track frame offsets:
# 151
# 31074
# 61813
# 95656
# 117665
# 135272
# 157135
# 174298
#
# Disc length: 2537 seconds
#
#
# Revision: 0
# Processed by: cddbd v1.5.2PL0 Copyright (c) Steve Scherf et al.
# Submitted via: FreeRIP 2.945 
#
DISCID=6209e708
DTITLE=Nusrat Fateh Ali Khan - Tere bin jiya jaye na
DYEAR=2000
DGENRE=Qawwali
TTITLE0=Sanwariya jiya jaye na (BQ)
TTITLE1=Sajna tere bin jiya (BQ)
TTITLE2=More saiyan to hai pardes (BQ)
TTITLE3=Ahista ahista raat
TTITLE4=Diya jale saari raat
TTITLE5=Jab tera hukum mila
TTITLE6=Aaya ni aaya mera sona sajan
TTITLE7=Kuch to hawa sard thi
EXTD=used in the MST of Bandit Queen
EXTT0=
EXTT1=
EXTT2=
EXTT3=
EXTT4=
EXTT5=
EXTT6=
EXTT7=
PLAYORDER=
